<svg width="40" height="40" viewBox="0 0 40 40" fill="none" xmlns="http://www.w3.org/2000/svg">
<rect width="40" height="40" rx="20" fill="white"/>
<path d="M20.001 17C19.2053 17 18.4423 17.3161 17.8797 17.8787C17.317 18.4413 17.001 19.2044 17.001 20C17.001 20.7956 17.317 21.5587 17.8797 22.1213C18.4423 22.6839 19.2053 23 20.001 23C20.7966 23 21.5597 22.6839 22.1223 22.1213C22.6849 21.5587 23.001 20.7956 23.001 20C23.001 19.2044 22.6849 18.4413 22.1223 17.8787C21.5597 17.3161 20.7966 17 20.001 17ZM20.001 15C21.3271 15 22.5988 15.5268 23.5365 16.4645C24.4742 17.4021 25.001 18.6739 25.001 20C25.001 21.3261 24.4742 22.5979 23.5365 23.5355C22.5988 24.4732 21.3271 25 20.001 25C18.6749 25 17.4031 24.4732 16.4654 23.5355C15.5278 22.5979 15.001 21.3261 15.001 20C15.001 18.6739 15.5278 17.4021 16.4654 16.4645C17.4031 15.5268 18.6749 15 20.001 15ZM26.501 14.75C26.501 15.0815 26.3693 15.3995 26.1349 15.6339C25.9004 15.8683 25.5825 16 25.251 16C24.9195 16 24.6015 15.8683 24.3671 15.6339C24.1327 15.3995 24.001 15.0815 24.001 14.75C24.001 14.4185 24.1327 14.1005 24.3671 13.8661C24.6015 13.6317 24.9195 13.5 25.251 13.5C25.5825 13.5 25.9004 13.6317 26.1349 13.8661C26.3693 14.1005 26.501 14.4185 26.501 14.75ZM20.001 12C17.527 12 17.123 12.007 15.972 12.058C15.188 12.095 14.662 12.2 14.174 12.39C13.7656 12.5399 13.3964 12.7803 13.094 13.093C12.781 13.3954 12.5403 13.7646 12.39 14.173C12.2 14.663 12.095 15.188 12.059 15.971C12.007 17.075 12 17.461 12 20C12 22.475 12.007 22.878 12.058 24.029C12.095 24.812 12.2 25.339 12.389 25.826C12.559 26.261 12.759 26.574 13.091 26.906C13.428 27.242 13.741 27.443 14.171 27.609C14.665 27.8 15.191 27.906 15.971 27.942C17.075 27.994 17.461 28 20 28C22.475 28 22.878 27.993 24.029 27.942C24.811 27.905 25.337 27.8 25.826 27.611C26.234 27.4603 26.603 27.2201 26.906 26.908C27.243 26.572 27.444 26.259 27.61 25.828C27.8 25.336 27.906 24.81 27.942 24.028C27.994 22.925 28 22.538 28 20C28 17.526 27.993 17.122 27.942 15.971C27.905 15.189 27.799 14.661 27.61 14.173C27.4592 13.765 27.219 13.396 26.907 13.093C26.6047 12.7798 26.2355 12.5392 25.827 12.389C25.337 12.199 24.811 12.094 24.029 12.058C22.926 12.006 22.541 12 20.001 12ZM20.001 10C22.718 10 23.057 10.01 24.124 10.06C25.188 10.11 25.914 10.277 26.551 10.525C27.211 10.779 27.767 11.123 28.323 11.678C28.8315 12.1779 29.2249 12.7826 29.476 13.45C29.723 14.087 29.891 14.813 29.941 15.878C29.988 16.944 30.001 17.283 30.001 20C30.001 22.717 29.991 23.056 29.941 24.122C29.891 25.187 29.723 25.912 29.476 26.55C29.2256 27.2178 28.8321 27.8226 28.323 28.322C27.8229 28.8303 27.2183 29.2238 26.551 29.475C25.914 29.722 25.188 29.89 24.124 29.94C23.057 29.987 22.718 30 20.001 30C17.284 30 16.945 29.99 15.878 29.94C14.814 29.89 14.089 29.722 13.451 29.475C12.7833 29.2245 12.1785 28.8309 11.679 28.322C11.1704 27.8222 10.7769 27.2175 10.526 26.55C10.278 25.913 10.111 25.187 10.061 24.122C10.013 23.056 10.001 22.717 10.001 20C10.001 17.283 10.011 16.944 10.061 15.878C10.111 14.812 10.278 14.088 10.526 13.45C10.7762 12.7822 11.1698 12.1773 11.679 11.678C12.1786 11.1692 12.7834 10.7757 13.451 10.525C14.088 10.277 14.813 10.11 15.878 10.06C16.945 10.013 17.284 10 20.001 10Z" fill="#263238"/>
</svg>
